
<svg width="69px" height="157px" viewBox="0 0 69 157" version="1.1" xmlns="http://www.w3.org/2000/svg" xmlns:xlink="http://www.w3.org/1999/xlink">
    <!-- Generator: Sketch 48.2 (47327) - http://www.bohemiancoding.com/sketch -->
    <desc>Created with Sketch.</desc>
    <defs>
        <linearGradient x1="113.152902%" y1="-40.0452826%" x2="50%" y2="100%" id="linearGradient-1">
            <stop stop-color="#67C68E" offset="0%"></stop>
            <stop stop-color="#26A7E7" offset="100%"></stop>
        </linearGradient>
    </defs>
    <g id="Page-1" stroke="none" stroke-width="1" fill="none" fill-rule="evenodd">
        <g id="brand" transform="translate(-965.000000, -81.000000)" fill="url(#linearGradient-1)">
            <path d="M1001,138 L1001,103 L1031,120.500291 L1001,138 Z M1002,179.500291 L1032,162 L1032,197 L1002,179.500291 Z M968,198.500583 L998,181 L998,216 L968,198.500583 Z M967,200 L997,217.499417 L967,235 L967,200 Z M1001,177 L1001,142 L1031,159.5 L1001,177 Z M1001,181 L1031,198.500291 L1001,216 L1001,181 Z M998,142 L998,177 L968,159.499417 L998,142 Z M968,120.500583 L998,103 L998,138 L968,120.500583 Z M997,140.500291 L967,158 L967,123 L997,140.500291 Z M1032,119 L1002,101.5 L1032,84 L1032,119 Z M1034,82.1553087 C1034,81.7424407 1033.77775,81.3613317 1033.41667,81.154609 C1033.05558,80.9484637 1032.61108,80.9484637 1032.25,81.154609 L965.583333,119.827352 C965.22225,120.034074 965,120.415183 965,120.828051 L965,159.500217 C965,159.913085 965.22225,160.294194 965.583333,160.500916 L997.666083,178.836877 L965.583333,197.172259 C965.22225,197.378982 965,197.760091 965,198.172959 L965,236.845124 C965,237.257415 965.22225,237.639101 965.583333,237.845247 C965.764167,237.948608 965.964833,238 966.166667,238 C966.3685,238 966.569167,237.948608 966.75,237.845247 L1033.41667,199.173081 C1033.77775,198.966936 1033,198.585827 1034,198.172959 L1034,159.500217 C1034,159.087349 1033.77775,158.70624 1033.41667,158.500094 L1002.33392,140.164134 L1033.41667,121.828174 C1033.77775,121.622028 1034,121.240342 1034,120.828051 L1034,82.1553087 Z" id="Fill-1"></path>
        </g>
    </g>
</svg>